<?xml version="1.0" encoding="utf-8"?>
<!-- Generator: Adobe Illustrator 24.2.1, SVG Export Plug-In . SVG Version: 6.00 Build 0)  -->
<svg version="1.1" id="Layer_1" xmlns="http://www.w3.org/2000/svg" xmlns:xlink="http://www.w3.org/1999/xlink" x="0px" y="0px"
	 viewBox="0 0 59 60.8" style="enable-background:new 0 0 59 60.8;" xml:space="preserve">
<style type="text/css">
	.st0{fill:#2F2E35;}
	.st1{fill:url(#SVGID_1_);}
</style>
<g>
	<path class="st0" d="M6.4,21.1c0-0.2,0.1-0.3,0.2-0.6v-0.1c0.6-1.5,1.4-2.9,2.3-4.1C9,16.2,9,16.1,9.1,16.1c0.3-0.3,0.5-0.7,0.8-1
		c2.7-3.2,6.4-5.2,11-5.9c4.8-0.7,9.2,0.5,13.1,3.3c0.8,0.6,1.5,1.2,2.2,1.8c1.1-1.1,2.2-2.2,3.5-3.5c-0.1-0.1-0.3-0.2-0.4-0.3
		c-0.8-0.6-1.5-1.3-2.3-1.9c-5.8-4.2-12.2-5.5-19.2-3.8c-6.9,1.7-12,6-15.1,12.4C1,20.9,0.3,24.8,0.6,28.9c0.3,3.4,1.3,6.7,3,9.6
		c2.5,4.2,5.9,7.3,10.3,9.3c4.2,2,8.7,2.5,13.3,1.8c2.6-0.4,5-1.3,7.3-2.6c0.2-0.1,0.4-0.1,0.5,0.1c0.5,0.5,1,1,1.5,1.5
		c3.6,3.6,7.1,7.1,10.7,10.7c1.3,1.3,2.9,1.7,4.7,1.4c1.2-0.2,2.1-0.9,3-1.8c2.2-2.2,2.2-5.5,0-7.7c-4-4-7.9-7.9-11.9-11.9
		c-0.2-0.2-0.2-0.3-0.1-0.5c2-3.3,3.1-7,3.3-10.9c0.1-2.9-0.3-5.6-1.2-8.3c0-0.1-0.1-0.3-0.2-0.4c-0.1,0.1-0.1,0.1-0.1,0.1
		c-1.2,1.2-2.4,2.4-3.6,3.6C41,23,41,23.2,41,23.4c0.1,0.7,0.2,1.4,0.3,2.2c0.3,4.7-0.9,9-3.8,12.6c-4.1,5-9.4,7.3-15.8,6.8
		c-3.8-0.3-7.1-1.7-9.9-4.2c-3.6-3-5.7-6.9-6.3-11.6c-0.1-0.5-0.1-1-0.1-1.6c0,0,0,0,0.1,0c0-0.2,0-0.5,0-0.7
		C5.4,24.9,5.8,22.9,6.4,21.1z"/>
	<linearGradient id="SVGID_1_" gradientUnits="userSpaceOnUse" x1="45.2522" y1="28.2518" x2="27.7203" y2="10.2093">
		<stop  offset="0" style="stop-color:#104C89"/>
		<stop  offset="1" style="stop-color:#1889B3"/>
	</linearGradient>
	<path class="st1" d="M57,0c-5,0-10.1,0-15.2,0c-0.3,0-0.4,0.1-0.4,0.4c0,1.4,0,2.8,0,4.2c0,0.4,0.1,0.5,0.5,0.5c2.1,0,4.3,0,6.4,0
		c0.1,0,0.3,0,0.4,0c-3.7,3.7-7.5,7.5-11.2,11.2c-3.2,3.2-6.4,6.4-9.7,9.7c-3.5-3.6-7.1-7.1-10.8-10.8c-0.1,0.2-0.2,0.3-0.3,0.4
		c-2.6,2.6-5.3,5.3-7.9,7.9c-0.2,0.2-0.3,0.2-0.5,0c-0.5-0.5-1-1-1.5-1.5c-0.4-0.4-0.6-0.6-0.5-0.8c-0.6,1.8-1,3.8-1,5.8
		c0,0.2,0,0.5,0,0.7h0.1c1,1.1,2.1,2.1,3.1,3.2c2.9-2.9,5.7-5.7,8.5-8.5c3.6,3.6,7.1,7.2,10.7,10.8C32,29,36,25,40,20.9
		c4.1-4.1,8.2-8.2,12.2-12.2c0,0,0.1,0,0.1,0.1c0,2.5,0,5,0,7.6c0.1,0,0.2,0,0.2,0c1.5,0,3,0,4.5,0c0.3,0,0.3-0.2,0.3-0.4
		c0-5.2,0-10.4,0-15.6C57.4,0.1,57.3,0,57,0z"/>
</g>
</svg>
